<?xml version="1.0" encoding="iso-8859-1"?>
<!-- Generator: Adobe Illustrator 19.0.0, SVG Export Plug-In . SVG Version: 6.00 Build 0)  -->
<svg version="1.1" id="Capa_1" xmlns="http://www.w3.org/2000/svg" xmlns:xlink="http://www.w3.org/1999/xlink" x="0px" y="0px"
	 viewBox="0 0 512.146 512.146" style="enable-background:new 0 0 512.146 512.146;" xml:space="preserve">
<g transform="translate(-1 -1)">
	<path style="fill:#D1D4D1;" d="M469.633,246.641c-15.448,83.862-46.698,123.939-58.175,151.481l0.088,0.265
		c0,26.483,31.515,105.931,44.138,114.759h-220.69c-1.351-18.281-7.369-35.909-17.479-51.2l-0.353-0.971
		c-38.488,13.506-81.39,20.303-97.015,15.183c-27.013-8.828-18.008-26.483-18.008-44.138s-9.004-8.828-18.008-17.655
		c-9.004-8.828,9.004-17.655,9.004-17.655c-18.008,0-18.008,0-18.008-26.483c0.035-4.755-1.862-9.32-5.258-12.649
		c-3.395-3.329-7.997-5.136-12.751-5.006c-44.932-8.828,16.949-46.875,18.008-88.276c0.229-8.928-0.631-17.851-2.561-26.571
		c-1.324-6.621-3.09-12.712-4.589-18.979c-1.748-6.742-2.9-13.625-3.444-20.568c-0.643-14.671,0.994-29.352,4.855-43.52
		C87.84,80.065,145.571,28.158,219.458,8.385c55.117-14.661,113.775-7.317,163.576,20.48
		C455.42,72.208,484.374,166.752,469.633,246.641z"/>
	<g>
		<path style="fill:#A5A5A4;" d="M231.909,460.185c-4.307-0.002-7.984-3.111-8.702-7.357c-0.719-4.246,1.731-8.392,5.797-9.811
			c29.534-10.284,51.681-22.974,60.784-34.819c1.92-2.501,5.029-3.787,8.155-3.375c3.126,0.413,5.794,2.462,7,5.375
			c1.206,2.913,0.766,6.249-1.155,8.75c-14.491,18.866-45.509,32.569-68.974,40.741
			C233.881,460.017,232.898,460.184,231.909,460.185z"/>
		<path style="fill:#A5A5A4;" d="M137.539,208.506c-0.643,2.256-2.163,4.16-4.219,5.288c-2.057,1.128-4.479,1.385-6.727,0.715
			c-4.482-1.548-9.294-1.883-13.948-0.971c-14.906,4.912-28.514,13.119-39.812,24.011c-0.088,0.088-0.177,0.177-0.265,0.177
			c-1.324-6.621-3.09-12.712-4.589-18.979c11.674-10.552,25.633-18.257,40.783-22.51c7.584-1.464,15.413-1.008,22.776,1.324
			C136.196,198.95,138.872,203.83,137.539,208.506z"/>
		<path style="fill:#A5A5A4;" d="M374.616,270.112l-30.371,24.276c-2.485,1.961-3.729,5.103-3.26,8.234
			c0.468,3.131,2.577,5.771,5.527,6.919c2.95,1.149,6.289,0.63,8.751-1.36l30.371-24.276c2.485-1.961,3.729-5.103,3.26-8.234
			c-0.468-3.131-2.577-5.771-5.527-6.919C380.417,267.603,377.078,268.122,374.616,270.112z"/>
		<path style="fill:#A5A5A4;" d="M428.262,164.913l-18.629-37.164c-2.188-4.353-7.487-6.113-11.845-3.935
			c-1.43,0.764-2.615,1.919-3.416,3.329c-2.026-3.149-5.954-4.489-9.483-3.234c0.018-0.303,0.019-0.606,0.002-0.909
			c-0.454-2.298-1.805-4.321-3.755-5.62c-1.95-1.299-4.337-1.768-6.633-1.302l-44.138,8.828c-4.447,0.892-7.494,5.008-7.049,9.522
			c0.445,4.514,4.238,7.955,8.774,7.961c0.585-0.001,1.168-0.058,1.741-0.172l43.507-8.702l-17.184,42.964l-40.193-32.155
			c-1.989-1.592-4.569-2.248-7.077-1.797s-4.699,1.962-6.01,4.146l-26.483,44.138c-0.279,0.572-0.493,1.173-0.637,1.793
			L259.03,146.12c-0.952-2.139-2.716-3.811-4.902-4.649c-2.186-0.838-4.616-0.772-6.753,0.184c-0.563,0.31-1.089,0.684-1.567,1.113
			c-2.667-0.691-5.503-0.072-7.64,1.667l-52.966,44.138c-1.546,1.33-2.574,3.162-2.903,5.175L163.728,147.9
			c-1.831-4.518-6.978-6.697-11.496-4.866c-4.518,1.831-6.697,6.978-4.866,11.496l18.629,45.992c0.875,2.172,2.578,3.907,4.735,4.82
			s4.588,0.93,6.757,0.046c2.841-1.186,4.843-3.787,5.261-6.837c0.306,0.884,0.753,1.713,1.325,2.453
			c3.124,3.746,8.692,4.252,12.44,1.129l49.699-41.416l17.714,39.731c0.949,2.141,2.713,3.816,4.9,4.654
			c2.187,0.838,4.618,0.77,6.755-0.189c2.293-1.039,4.023-3.02,4.743-5.432c0.697,1.408,1.766,2.598,3.093,3.44
			c4.18,2.509,9.603,1.154,12.112-3.026l21.284-35.478l36.25,28.999c2.053,1.615,4.724,2.219,7.273,1.645
			c0.464,0.381,0.968,0.711,1.503,0.984c2.174,0.872,4.606,0.843,6.759-0.08c2.153-0.923,3.85-2.666,4.716-4.842l21.455-53.642
			l17.718,35.344c1.408,2.828,4.22,4.688,7.374,4.876c3.154,0.188,6.167-1.323,7.902-3.964
			C429.497,171.099,429.688,167.733,428.262,164.913L428.262,164.913z"/>
		<path style="fill:#A5A5A4;" d="M294.366,223.961c-2.678-4.076-8.153-5.208-12.228-2.53s-5.208,8.153-2.53,12.229l37.259,56.672
			c2.678,4.076,8.153,5.208,12.229,2.53c4.075-2.678,5.208-8.153,2.53-12.228L294.366,223.961z"/>
		<path style="fill:#A5A5A4;" d="M400.771,184.862l-27.81,11.121c-4.527,1.81-6.731,6.946-4.922,11.474
			c0.145,0.28,0.305,0.552,0.481,0.814c-0.945,0.247-1.842,0.653-2.653,1.199c-1.899,1.369-3.176,3.438-3.55,5.749
			c-0.373,2.311,0.187,4.676,1.558,6.574l22.862,31.69c1.845,2.556,4.913,3.934,8.05,3.615c3.136-0.32,5.864-2.288,7.155-5.164
			c1.291-2.876,0.95-6.222-0.894-8.778l-22.121-30.662c0.194-0.063,0.394-0.037,0.586-0.114l27.81-11.121
			c4.524-1.812,6.724-6.946,4.916-11.471C410.43,185.262,405.298,183.058,400.771,184.862L400.771,184.862z"/>
		<path style="fill:#A5A5A4;" d="M285.823,62.676l35.31,8.828c4.717,1.147,9.475-1.73,10.651-6.44
			c1.176-4.71-1.672-9.485-6.375-10.69l-35.31-8.828c-4.717-1.147-9.475,1.73-10.651,6.44
			C278.272,56.697,281.12,61.472,285.823,62.676z"/>
		<path style="fill:#A5A5A4;" d="M208.503,71.767c0.585-0.001,1.168-0.058,1.741-0.172l44.138-8.828
			c3.1-0.611,5.637-2.833,6.652-5.825s0.353-6.299-1.736-8.67c-2.089-2.371-5.285-3.445-8.382-2.815l-44.138,8.828
			c-4.447,0.892-7.494,5.008-7.049,9.522C200.176,68.319,203.968,71.761,208.503,71.767z"/>
		<path style="fill:#A5A5A4;" d="M155.538,124.732c2.78,0.005,5.4-1.302,7.069-3.526l23.397-31.16
			c1.906-2.522,2.318-5.87,1.081-8.779c-1.237-2.909-3.935-4.935-7.073-5.311c-3.138-0.377-6.239,0.953-8.129,3.487l-23.396,31.159
			c-2.008,2.673-2.333,6.252-0.84,9.244C149.139,122.838,152.194,124.73,155.538,124.732z"/>
		<path style="fill:#A5A5A4;" d="M261.478,204.181h-61.793c-4.875,0-8.828,3.952-8.828,8.828s3.952,8.828,8.828,8.828h61.793
			c4.875,0,8.828-3.952,8.828-8.828S266.353,204.181,261.478,204.181z"/>
		<path style="fill:#A5A5A4;" d="M374.745,111.4c2.427,2.014,5.744,2.581,8.702,1.486c2.958-1.095,5.107-3.684,5.638-6.793
			c0.531-3.109-0.637-6.265-3.064-8.279l-25.948-21.543c-2.427-2.014-5.744-2.581-8.702-1.486c-2.958,1.095-5.107,3.684-5.638,6.793
			c-0.531,3.109,0.637,6.265,3.064,8.279L374.745,111.4z"/>
		<path style="fill:#A5A5A4;" d="M173.202,124.732c-4.875,0-8.828,3.952-8.828,8.828c0,4.875,3.952,8.828,8.828,8.828h52.966
			c4.875,0,8.828-3.952,8.828-8.828c0-4.875-3.952-8.828-8.828-8.828H173.202z"/>
		<path style="fill:#A5A5A4;" d="M261.478,124.732c-4.875,0-8.828,3.952-8.828,8.828c0,4.875,3.952,8.828,8.828,8.828h35.31
			c4.875,0,8.828-3.952,8.828-8.828c0-4.875-3.952-8.828-8.828-8.828H261.478z"/>
		<path style="fill:#A5A5A4;" d="M298.521,221.663l44.138-8.828c4.767-0.969,7.852-5.613,6.897-10.383
			c-0.955-4.77-5.589-7.868-10.362-6.928l-44.138,8.828c-4.447,0.892-7.494,5.008-7.049,9.521c0.445,4.513,4.238,7.955,8.773,7.961
			C297.364,221.835,297.947,221.777,298.521,221.663z"/>
		<path style="fill:#A5A5A4;" d="M194.478,94.732l44.578,28.604l0.144,0.066l0.079,0.072c0.446,0.239,0.912,0.438,1.392,0.595
			c0.261,0.1,0.504,0.254,0.769,0.329c0.772,0.22,1.57,0.332,2.373,0.335c0.737-0.001,1.471-0.095,2.184-0.277
			c0.238-0.061,0.456-0.185,0.689-0.265c0.467-0.142,0.921-0.323,1.358-0.54c0.259-0.164,0.508-0.341,0.749-0.531
			c0.371-0.232,0.724-0.492,1.056-0.777c0.226-0.241,0.439-0.494,0.637-0.758c0.277-0.286,0.533-0.59,0.767-0.912l0.039-0.1
			l0.099-0.124l20.664-34.444l36.147,36.142c2.223,2.264,5.49,3.16,8.556,2.348c3.067-0.812,5.462-3.207,6.274-6.274
			c0.812-3.067-0.085-6.333-2.348-8.556l-44.138-44.138c-1.921-1.923-4.622-2.853-7.32-2.522c-2.698,0.332-5.093,1.889-6.491,4.22
			l-21.802,36.337L204.012,79.87c-4.104-2.622-9.555-1.426-12.185,2.673S190.384,92.096,194.478,94.732L194.478,94.732z"/>
	</g>
	<g>
		<circle style="fill:#46B29D;" cx="270.305" cy="54.112" r="26.483"/>
		<circle style="fill:#46B29D;" cx="243.823" cy="133.56" r="26.483"/>
		<circle style="fill:#46B29D;" cx="314.443" cy="133.56" r="26.483"/>
		<circle style="fill:#46B29D;" cx="358.581" cy="204.181" r="26.483"/>
		<circle style="fill:#46B29D;" cx="190.857" cy="71.767" r="26.483"/>
		<circle style="fill:#46B29D;" cx="155.547" cy="133.56" r="26.483"/>
		<circle style="fill:#46B29D;" cx="182.03" cy="213.008" r="26.483"/>
		<circle style="fill:#46B29D;" cx="279.133" cy="213.008" r="26.483"/>
		<circle style="fill:#46B29D;" cx="420.374" cy="186.525" r="26.483"/>
		<circle style="fill:#46B29D;" cx="393.892" cy="115.905" r="26.483"/>
		<circle style="fill:#46B29D;" cx="340.926" cy="71.767" r="26.483"/>
		<circle style="fill:#46B29D;" cx="332.099" cy="301.284" r="26.483"/>
		<circle style="fill:#46B29D;" cx="393.892" cy="265.974" r="26.483"/>
	</g>
</g>
<g>
</g>
<g>
</g>
<g>
</g>
<g>
</g>
<g>
</g>
<g>
</g>
<g>
</g>
<g>
</g>
<g>
</g>
<g>
</g>
<g>
</g>
<g>
</g>
<g>
</g>
<g>
</g>
<g>
</g>
</svg>
