<svg height="512" viewBox="0 0 128 128" width="512" xmlns="http://www.w3.org/2000/svg"><g id="Circle_Grid" data-name="Circle Grid"><circle cx="64" cy="64" fill="#3b5059" r="64"/></g><g id="icon"><path d="m75.651 43.671-3.501-.959" fill="none"/><path d="m81.086 28.782v19.58h-34.08v-19.58a2.891 2.891 0 0 1 2.894-2.891h28.3a2.891 2.891 0 0 1 2.886 2.891z" fill="#dbd8dd"/><path d="m47.006 30.07h34.08v2.654h-34.08z" fill="#bbbbcd"/><path d="m79.554 102.327v2.673h-9.972a1.649 1.649 0 0 1 -1.643-1.5l-.539-5.925h7.932v1.708h1.172a3.046 3.046 0 0 1 3.05 3.044z" fill="#bbbbcd"/><path d="m60.6 97.575-.54 5.925a1.649 1.649 0 0 1 -1.643 1.5h-9.971v-2.673a3.046 3.046 0 0 1 3.046-3.043h1.172v-1.709z" fill="#bbbbcd"/><path d="m85.2 72.5-.9.9h-4.365l-.381-.9-.7-2.552-.722-2.648-1.792-6.563-1-3.672v40.51h-7.94l-.862-9.527-.247-2.715-.476-5.259-.168-1.863a1.657 1.657 0 0 0 -3.3 0l-.168 1.863-.476 5.259-.247 2.715-.856 9.527h-7.935v-40.508l-1 3.672-1.797 6.561-.725 2.644-.7 2.552-.381.9h-4.368l-.9-.9.481-4.6.3-2.883 1.572-14.991.068-.652c.011-.1.021-.192.037-.289a5.278 5.278 0 0 1 1.1-2.494 5.664 5.664 0 0 1 4.4-2.1h26.489a5.664 5.664 0 0 1 4.4 2.1 5.278 5.278 0 0 1 1.1 2.494c.013.1.026.192.037.289l.068.652 1.572 14.991.3 2.883z" fill="#eeefee"/><path d="m49.868 67.301-.725 2.644-5.866-2.047.302-2.884z" fill="#dbd8dd"/><path d="m62.975 45.032a11.315 11.315 0 0 0 4.534 2.778 11.371 11.371 0 0 1 -14.873-10.81v-2.633c0-.1 0-.2 0-.3a11.374 11.374 0 0 1 14.87-10.518 11.368 11.368 0 0 0 -7.858 10.521v.3 2.63a11.321 11.321 0 0 0 3.327 8.032z" fill="#dbd8dd"/><path d="m67.509 47.81a11.371 11.371 0 0 1 -14.873-10.81v-2.633c0-.1 0-.2 0-.3a16.177 16.177 0 0 1 7.714-3.653 11.306 11.306 0 0 0 -.7 3.653v.3 2.633a11.376 11.376 0 0 0 7.859 10.81z" fill="#eab54e"/><path d="m75.37 34.367v2.633a11.37 11.37 0 0 1 -7.861 10.81 11.376 11.376 0 0 1 -7.864-10.81v-2.633c0-.1 0-.2 0-.3a11.306 11.306 0 0 1 .7-3.653 19.24 19.24 0 0 1 3.655-.344 17.165 17.165 0 0 1 11.364 4c.006.1.006.197.006.297z" fill="#f6c863"/><path d="m75.367 34.07a17.165 17.165 0 0 0 -11.367-4 19.24 19.24 0 0 0 -3.651.347 11.376 11.376 0 0 1 7.157-6.865 11.381 11.381 0 0 1 7.861 10.518z" fill="#eeefee"/><path d="m85.2 72.5v5.716a2.694 2.694 0 0 1 -2.694 2.694h-1.585a1.369 1.369 0 0 1 -1.369-1.369v-7.041z" fill="#bbbbcd"/><path d="m60.844 54.67-1.844 1.971-9.527-12a5.613 5.613 0 0 1 1.283-.147h2.224z" fill="#dbd8dd"/><path d="m52.665 57.067-1 3.672-6.51-10.715.068-.652c.011-.1.021-.192.037-.289a5.278 5.278 0 0 1 1.1-2.494z" fill="#dbd8dd"/><path d="m78.523 44.638-9.523 12.003-1.84-1.971 7.861-10.179h2.224a5.613 5.613 0 0 1 1.278.147z" fill="#dbd8dd"/><path d="m82.849 50.023-6.51 10.715-1-3.672 6.3-10.479a5.278 5.278 0 0 1 1.1 2.494c.013.1.026.192.037.289z" fill="#dbd8dd"/><rect fill="#bbbbcd" height="15.704" rx="1.391" width="11.214" x="58.396" y="54.013"/><g fill="#dbd8dd"><path d="m75.335 72.394v3.038l-9.517 4.641-.168-1.863a1.64 1.64 0 0 0 -.307-.82z"/><path d="m75.335 85.333v2.715h-8.794l-.247-2.715z"/><path d="m62.657 77.391a1.64 1.64 0 0 0 -.307.82l-.168 1.863-9.517-4.641v-3.039z"/><path d="m61.706 85.333-.247 2.715h-8.794v-2.715z"/><path d="m58.396 59.882h11.212v2.673h-11.212z"/></g><rect fill="#9a9eaf" height="2.76" rx="1.38" width="5.553" x="61.274" y="64"/><path d="m84.723 67.898-5.866 2.047-.725-2.644 6.289-2.287z" fill="#dbd8dd"/><path d="m42.8 72.5v5.716a2.694 2.694 0 0 0 2.694 2.694h1.588a1.369 1.369 0 0 0 1.369-1.369v-7.041z" fill="#bbbbcd"/></g></svg>